# xmcd
#
# Track frame offsets:
# 150
# 12082
# 25458
# 40241
# 50634
# 60557
# 73055
# 87316
# 98964
# 109539
#
# Disc length: 1657 seconds
#
#
# Revision: 0
# Processed by: cddbd v1.5PL3 Copyright (c) Steve Scherf et al.
# Submitted via: FreeRIP 2.53 
#
DISCID=8106770a
DTITLE=Paycheck, Johnny - Greatest Hits (St Clair)
DYEAR=1900
DGENRE=Country
TTITLE0=Take This Job And Shove It
TTITLE1=Slide Off Those Satin Sheets
TTITLE2=Somebody Loves You
TTITLE3=Motel Time Again
TTITLE4=Mr Lovemaker
TTITLE5=Dont Take Her, Shes All I Got
TTITLE6=Im The Only Hell My Mama Raised
TTITLE7=Song And Dance Man
TTITLE8=Jukebox Charlie
TTITLE9=Green Green Grass Of Home
EXTD=
EXTT0=
EXTT1=
EXTT2=
EXTT3=
EXTT4=
EXTT5=
EXTT6=
EXTT7=
EXTT8=
EXTT9=
PLAYORDER=
